<?xml version="1.0" encoding="UTF-8" standalone="no"?>
<svg
   xmlns:dc="http://purl.org/dc/elements/1.1/"
   xmlns:cc="http://creativecommons.org/ns#"
   xmlns:rdf="http://www.w3.org/1999/02/22-rdf-syntax-ns#"
   xmlns:svg="http://www.w3.org/2000/svg"
   xmlns="http://www.w3.org/2000/svg"
   xmlns:xlink="http://www.w3.org/1999/xlink"
   xmlns:sodipodi="http://sodipodi.sourceforge.net/DTD/sodipodi-0.dtd"
   xmlns:inkscape="http://www.inkscape.org/namespaces/inkscape"
   height="24px"
   viewBox="0 0 24 24"
   width="24px"
   fill="#000000"
   version="1.1"
   id="svg6"
   sodipodi:docname="SlicerExtension.svg"
   inkscape:version="0.92.5 (2060ec1f9f, 2020-04-08)">
  <metadata
     id="metadata12">
    <rdf:RDF>
      <cc:Work
         rdf:about="">
        <dc:format>image/svg+xml</dc:format>
        <dc:type
           rdf:resource="http://purl.org/dc/dcmitype/StillImage" />
        <dc:title></dc:title>
      </cc:Work>
    </rdf:RDF>
  </metadata>
  <defs
     id="defs10">
    <path
       d="M261.1,348.7c-28.4,0-62.6-3.3-87.8-6.6c-3.7-27.6-4.6-57.5-4.6-89c0-127,33.1-231.8,75.1-241.5     C116.4,18.5,15.1,125.1,15.1,255.6c0,135,108.3,244.4,242,244.4c129.1,0,234.5-102.1,241.6-230.6     C492.1,314.2,386,348.7,261.1,348.7z"
       id="SVGID_1_" />
  </defs>
  <sodipodi:namedview
     pagecolor="#ffffff"
     bordercolor="#666666"
     borderopacity="1"
     objecttolerance="10"
     gridtolerance="10"
     guidetolerance="10"
     inkscape:pageopacity="0"
     inkscape:pageshadow="2"
     inkscape:window-width="2256"
     inkscape:window-height="1410"
     id="namedview8"
     showgrid="true"
     inkscape:zoom="11.315"
     inkscape:cx="16.919127"
     inkscape:cy="-10.686243"
     inkscape:window-x="-11"
     inkscape:window-y="-11"
     inkscape:window-maximized="1"
     inkscape:current-layer="svg6">
    <inkscape:grid
       type="xygrid"
       id="grid1102" />
  </sodipodi:namedview>
  <path
     style="display:inline;opacity:1;fill:#f7eed5;fill-opacity:1;stroke:none;stroke-width:0.04043808;stroke-linecap:round;stroke-miterlimit:4;stroke-dasharray:none;stroke-opacity:1"
     d="m 10.550781,3.5958096 c -0.09745,-0.00941 -0.199872,0.00486 -0.277343,0.044922 -0.237834,0.1229901 -0.25,0.1877696 -0.25,1.375 V 6.0899503 H 7.03125 4.0390625 l 0.00195,1.0410156 0.00195,1.0410156 0.3925781,0.1933594 C 5.5201673,8.8951841 6.4076287,9.9296602 6.7851562,11.101667 7.244978,12.529154 6.9823308,14.162528 6.0996094,15.353621 5.663003,15.942752 4.943556,16.535007 4.3046875,16.830183 l -0.3066406,0.140625 v 1.029297 1.03125 H 5.0488281 6.0976562 L 6.3066406,18.623152 C 6.5205737,18.206668 6.9399396,17.629474 7.21875,17.367293 7.5472574,17.058378 8.5052235,17.076143 8.9862639,17.07231 10.204469,17.06261 7.7174665,17 10,17 c 0,-3 1,-4.692575 2,-6 1,-0.725221 2.663402,-1.9779054 6,-1.9779054 V 6.0626065 l -4.013672,0.027344 h -2.992187 v -1.03125 c 0,-1.0899454 -0.01684,-1.210003 -0.19336,-1.3671876 -0.05987,-0.053318 -0.152549,-0.086298 -0.25,-0.095703 z"
     id="path1078"
     inkscape:connector-curvature="0"
     sodipodi:nodetypes="scsccccccssccccccccsccccccscs" />
  <g
     id="g1006"
     transform="matrix(0.02164244,0,0,0.02164244,11.349159,10.453281)"
     style="display:none"
     inkscape:label="FullSlicerLogo">
	<path
   id="path920"
   d="m 500.3,245.7 v 0 -77.3 H 425.8 V 93.9 H 351.2 V 19.4 L 289.9,19.3 274,19.4 c 0,0 -4.3,-16.3 -43.5,-13 C 104,19.4 5.5,126.2 5.5,256 c 0,138.6 112.4,251 251,251 129.6,0 236.3,-98.2 249.6,-224.3 2.1,-28 -5.8,-37 -5.8,-37 z"
   inkscape:connector-curvature="0" />

	<g
   id="g930">
		<defs
   id="defs923">
			<path
   d="m 261.1,348.7 c -28.4,0 -62.6,-3.3 -87.8,-6.6 -3.7,-27.6 -4.6,-57.5 -4.6,-89 0,-127 33.1,-231.8 75.1,-241.5 -127.4,6.9 -228.7,113.5 -228.7,244 0,135 108.3,244.4 242,244.4 129.1,0 234.5,-102.1 241.6,-230.6 -6.6,44.8 -112.7,79.3 -237.6,79.3 z"
   id="path1018"
   inkscape:connector-curvature="0" />

		</defs>

		<use
   id="use925"
   style="overflow:visible;fill:#afb8d1"
   xlink:href="#SVGID_1_"
   x="0"
   y="0"
   width="100%"
   height="100%" />

		<clipPath
   id="SVGID_2_">
			<use
   id="use927"
   style="overflow:visible"
   xlink:href="#SVGID_1_"
   x="0"
   y="0"
   width="100%"
   height="100%" />

		</clipPath>

	</g>

	<g
   id="g936">
		<g
   id="g934">
			<path
   id="path932"
   d="M 256.1,501.4 C 191.1,501.4 130,475.8 84,429.4 38,383 12.7,321.2 12.7,255.6 12.8,125 113.8,17.2 242.8,10.1 c 0.7,0 1.3,0.5 1.5,1.2 0.1,0.7 -0.4,1.4 -1.1,1.5 -41.5,9.6 -74,115.1 -74,240.2 0,25 1.7,57.6 5.6,87.8 15.7,2 52,6.4 85.4,6.4 60.6,0 118.4,-8.1 162.7,-22.8 44.3,-14.7 70.4,-34.3 73.4,-55.3 0.1,-0.7 0.8,-1.2 1.5,-1.2 0.7,0.1 1.3,0.7 1.2,1.5 -7,130.1 -113.8,232 -242.9,232 z M 233.8,13.6 C 110.7,25 15.5,129.6 15.5,255.6 c 0,134 107.9,243 240.6,243 123.8,0 226.9,-94.8 239.3,-218 -9.2,17.8 -34,34 -71.7,46.5 -44.5,14.8 -102.6,22.9 -163.5,22.9 -34.3,0 -71,-5.4 -86,-7.4 -0.6,-0.1 -1.1,-0.6 -1.2,-1.2 -4.1,-30.7 -6.2,-63 -6.2,-88.4 0,-61.4 7.4,-120 21.5,-165.1 12.1,-38.9 28,-64.7 45.5,-74.3 z"
   inkscape:connector-curvature="0" />

		</g>

	</g>

	<g
   id="g942">
		<g
   id="g940">
			<path
   id="path938"
   d="m 423.9,339.7 c -1,0.3 -2,0.6 -3,0.9 C 394,412 331.8,465.8 257.7,485 c 0.9,0 1.8,0 2.7,0 55.8,0 109.4,-20.1 150.8,-56.5 35.3,-31 59.2,-71.7 69,-116.3 -13.1,10.6 -32.1,19.9 -56.3,27.5 z"
   class="st0"
   inkscape:connector-curvature="0"
   style="fill:#909caf" />

		</g>

	</g>

	<g
   id="g948">
		<g
   id="g946">
			<path
   id="path944"
   d="M 268.4,34.5 C 267.8,20.3 256.6,16.6 251.2,16.4 234.4,15.9 214.2,39.6 199.4,84.7 184.4,130.1 168,207 179.7,337.4 l 32.4,-31.3 c 0,0 -0.2,-2.5 -0.4,-5 0,0 -2.5,-31.5 -2.8,-47.5 -0.9,-48.7 3.3,-94.3 13.7,-128.7 10.4,-34.7 29.6,-64.1 44.5,-64.1 5.1,0 5.1,12.4 10,16.9 z"
   class="st1"
   inkscape:connector-curvature="0"
   style="fill:#626e7f" />

		</g>

	</g>

	<g
   id="g954">
		<g
   id="g952">
			<path
   id="path950"
   d="m 424.9,319.5 c 27.9,-9.8 87.3,-36.3 62,-75.8 -1.5,-2.4 -3.4,-4.5 -5.7,-6.1 h -47.3 c 5.9,5.6 8.9,11.5 8.9,17.5 0,14.9 -18.5,28.8 -52,39.2 -33.3,10.4 -77.6,16.1 -124.8,16.1 -18.5,0 -36.7,-0.9 -54.2,-2.6 h -0.1 l -31.8,29.8 c 15.7,2 53.3,5.5 84.6,5.5 60.3,-0.1 117.3,-8.5 160.4,-23.6 z"
   class="st2"
   inkscape:connector-curvature="0"
   style="fill:#afb8d2" />

		</g>

	</g>

	<g
   id="g958">
		<path
   id="path956"
   d="m 268,66.7 c -25.5,0 -52.9,72.3 -52.9,179.9 0,16.5 1.5,38.3 2.8,54.1 L 286.3,233.2 286,73.8 c -4.9,-5.2 -13,-7.1 -18,-7.1 z"
   class="st3"
   inkscape:connector-curvature="0"
   style="fill:#bcc9cb" />

	</g>

	<g
   id="g966">
		<g
   id="g964">
			<path
   id="path960"
   d="m 271.3,305.3 c -14.3,0 -34.6,-1.1 -48.2,-2.7 l 69.3,-67 149,-0.1 c 4,4.4 5.9,9.5 5.7,15.6 -0.3,10.4 -15.1,26.3 -46.9,36.4 -31.6,10.1 -75.2,16.4 -122.8,17.7 -1.8,0 -3.9,0.1 -6.1,0.1 z"
   class="st4"
   inkscape:connector-curvature="0"
   style="fill:#feffff" />

			<path
   id="path962"
   d="m 271.3,306.7 c -14.1,0 -32.9,-1.1 -46.9,-2.7 l -2.8,-0.3 66.5,-69.5 h 0.6 l 153.3,-0.1 0.4,0.5 c 4.3,4.7 6.2,10.1 6,16.5 -0.2,6 -4.5,12.9 -12.1,19.4 -8.6,7.3 -21,13.7 -35.7,18.4 -31.8,10.1 -75.5,16.5 -123.2,17.8 -1.8,-0.1 -3.9,0 -6.1,0 z m -47.2,-5.2 c 13.5,1.4 34.2,2.4 47.2,2.4 2.2,0 4.2,0 6.1,-0.1 47.4,-1.3 90.9,-7.6 122.4,-17.7 14.4,-4.6 26.4,-10.8 34.7,-17.8 6.9,-5.9 11,-12.2 11.2,-17.3 0.2,-5.5 -1.4,-10.1 -4.9,-14.1 L 291.1,237 Z"
   inkscape:connector-curvature="0" />

		</g>

	</g>

	<path
   id="path968"
   d="m 493.9,256.2 c -2,26.7 -21.7,46 -60.1,59 -67.2,22.8 -133.6,26.5 -177.4,25.6 -30,-0.6 -53.9,-3.4 -67.5,-5.4 l 29.7,-28.6 c 14,1.9 36.1,3.3 52.8,3.3 2.2,0 4.4,0 6.3,-0.1 48,-1.3 92.1,-7.7 124.1,-18 15,-4.8 27.7,-11.3 36.7,-18.9 8.5,-7.1 13.3,-15 13.5,-22.1 0.2,-7.9 -2.5,-14.7 -8.1,-20.2 l -0.4,-0.4 -153.7,0.1 -0.3,-156.8 c 0,-0.9 -0.3,-1.7 -0.9,-2.4 -5.3,-5.7 -14.2,-10.9 -20.5,-10.9 -14.7,0 -28.7,21.2 -39.3,54.7 -11,34.5 -17,81.2 -17,131.4 0,17.6 1.6,40.3 2.6,51.6 l -36.6,35.3 c -0.8,-0.1 -1.2,-0.2 -1.3,-0.2 0,0 0,0 0,0 l -2,9.6 c 1.3,0.3 33.1,6.7 81.6,7.7 4.2,0.1 8.3,0.1 12.5,0.1 24.2,0 48.2,-1.5 71.4,-4.4 34.1,-4.2 66.8,-11.6 97.1,-21.9 22.3,-7.6 39.2,-17.6 50.3,-29.7 9.8,-10.8 15.3,-23.5 16.4,-37.8 z m -51.7,-5.3 c -0.1,4.1 -3.9,9.7 -10.1,14.9 -8,6.7 -19.6,12.6 -33.4,17.1 -31.2,10 -74.3,16.2 -121.4,17.5 -17.9,0.1 -39.2,-0.6 -50.6,-1.5 l 60.6,-58.4 151.8,-0.1 c 2.3,3 3.2,6.3 3.1,10.5 z m -223.6,-4.2 c 0,-113.6 29,-176.2 49.2,-176.2 4.4,0 10.8,1.3 14.8,4.8 l 0.3,156.5 -11.9,11.7 -50.3,48.5 c -0.9,-12.1 -2.1,-30.5 -2.1,-45.3 z"
   inkscape:connector-curvature="0" />

	<g
   id="g974">
		<g
   id="g972">
			<rect
   id="rect970"
   height="64.800003"
   width="64.800003"
   class="st5"
   y="29.1"
   x="276.39999"
   style="fill:#f7bf21" />

		</g>

	</g>

	<g
   id="g980">
		<g
   id="g978">
			<rect
   id="rect976"
   height="64.800003"
   width="64.800003"
   class="st6"
   y="103.5"
   x="276.39999"
   style="fill:#129a68" />

		</g>

	</g>

	<g
   id="g984">
		<rect
   id="rect982"
   height="64.800003"
   width="64.800003"
   class="st7"
   y="103.5"
   x="351.10001"
   style="fill:#f26b31" />

	</g>

	<g
   id="g990">
		<g
   id="g988">
			<rect
   id="rect986"
   height="64.800003"
   width="64.800003"
   class="st8"
   y="178.2"
   x="425.70001"
   style="fill:#1f65b0" />

		</g>

	</g>

	<g
   id="g996">
		<g
   id="g994">
			<rect
   id="rect992"
   height="64.800003"
   width="64.800003"
   class="st9"
   y="178.2"
   x="276.39999"
   style="fill:#ee3128" />

		</g>

	</g>

	<g
   id="g1002">
		<g
   id="g1000">
			<rect
   id="rect998"
   height="64.800003"
   width="64.800003"
   class="st10"
   y="178.2"
   x="351.10001"
   style="fill:#cf582c" />

		</g>

	</g>

	<path
   id="path1004"
   d="m 500.3,245.7 v 0 -77.3 H 425.8 V 93.9 H 351.2 V 19.4 H 274 c 0,0 -0.5,-1.9 -2.8,-4.3 0,0 -3.9,1.1 -3.9,3.3 0,2.2 0,232.7 0,232.7 l 4.1,1.5 h 224.9 z m -159.1,-2.8 h -64.4 v -64.8 h 64.4 z m 0,-74.4 h -64.4 v -65.1 h 64.4 z m 0,-74.7 H 276.8 V 29 h 64.4 z m 74.7,149.1 h -65.1 v -64.8 h 65.1 z m 0,-74.4 h -65.1 v -65.1 h 65.1 z m 74.6,74.4 h -64.8 v -64.8 h 64.8 z"
   inkscape:connector-curvature="0" />

</g>
  <path
     style="display:inline;fill:none"
     d="m -2,-0.93739305 c 0,8.66666625 0,17.33333105 0,25.99999805 9.3333333,0 18.666667,0 28,0 0,-9.333333 0,-18.6666652 0,-27.9999985 -9.333333,0 -18.6666667,0 -28,0 v 1 z"
     id="path2"
     inkscape:connector-curvature="0" />
  <path
     style="display:inline;fill:#eeb308;fill-opacity:1"
     d="m 10.5,1.5626065 c -1.38,0 -2.5,1.12 -2.5,2.5 H 4 c -1.1,0 -1.9902344,0.9 -1.9902344,2 V 9.8633863 H 2.3007812 C 3.7907813,9.8633863 5,11.072605 5,12.562605 c 0,1.49 -1.2092188,2.699219 -2.6992188,2.699219 H 2 v 3.800781 c 0,1.1 0.9,2 2,2 h 3.8007812 v -0.300781 c 0,-1.49 1.1992188,-2.699219 2.2038528,-2.658781 -0.0046,-1.040438 -0.0046,-0.544579 0,-1.98989 -1.8282482,0.131423 -3.2054934,1.199452 -3.8854934,2.949452 H 4 v -2.119141 c 1.75,-0.68 3,-2.390859 3,-4.380859 0,-1.99 -1.2402344,-3.7008579 -2.9902344,-4.3808579 L 4,6.0626065 h 6 v -2 c 0,-0.28 0.22,-0.5 0.5,-0.5 0.28,0 0.5,0.22 0.5,0.5 v 2 h 6 v 3 h 2 v -3 c 0,-1.1 -0.9,-2 -2,-2 h -4 c 0,-1.38 -1.12,-2.5 -2.5,-2.5 z"
     id="path4"
     inkscape:connector-curvature="0"
     sodipodi:nodetypes="scsscssscsscscccccscccsssccccsscs" />
  <style
     id="style918"
     type="text/css">
	.st0{fill:#909CAF;}
	.st1{fill:#626E7F;}
	.st2{fill:#AFB8D2;}
	.st3{fill:#BCC9CB;}
	.st4{fill:#FEFFFF;}
	.st5{fill:#F7BF21;}
	.st6{fill:#129A68;}
	.st7{fill:#F26B31;}
	.st8{fill:#1F65B0;}
	.st9{fill:#EE3128;}
	.st10{fill:#CF582C;}
</style>
  <path
     style="display:inline;opacity:1;fill:none;fill-opacity:1;stroke:#eeb308;stroke-width:1;stroke-linecap:round;stroke-miterlimit:4;stroke-dasharray:none;stroke-opacity:1"
     d="m 17,10.563197 c -3.037566,0 -5.5,2.462434 -5.5,5.5 0,3.037566 2.462434,5.5 5.5,5.5 3.037566,0 5.505524,-2.462434 5.505524,-5.5 -0.0015,-0.166995 0.01145,-0.198423 0.0058,-0.486893 L 17.508613,15.57078 17.5,10.555446 c -0.221855,-0.005 0.101343,0.01967 -0.5,0.0078 z"
     id="path1100"
     inkscape:connector-curvature="0"
     inkscape:label="SlicerLogo"
     sodipodi:nodetypes="csscccccc" />
  <path
     style="fill:none;stroke:#eeb308;stroke-width:1;stroke-linecap:butt;stroke-linejoin:miter;stroke-miterlimit:4;stroke-dasharray:none;stroke-opacity:1"
     d="m 17.049439,10.616561 c -2,-0.02539 -1.487096,4.682351 -1.546879,6.958986 3.172667,0.03092 5.983917,-0.36575 7.03638,-2.004767"
     id="path4812"
     inkscape:connector-curvature="0"
     sodipodi:nodetypes="ccc" />
  <path
     style="fill:none;stroke:#eeb308;stroke-width:1px;stroke-linecap:butt;stroke-linejoin:miter;stroke-opacity:1"
     d="m 15.50256,17.59117 2.0171,-2.02039"
     id="path4831"
     inkscape:connector-curvature="0"
     sodipodi:nodetypes="cc" />
  <path
     style="fill:none;stroke:#eeb308;stroke-width:1px;stroke-linecap:butt;stroke-linejoin:miter;stroke-opacity:1"
     d="m 17.87848,11.573125 1.628608,0.0019 -1e-6,0.999668 1.001457,-0.0055 -0.0036,0.999886 1.00205,0.0038 -9.48e-4,1.589164"
     id="path4837"
     inkscape:connector-curvature="0"
     sodipodi:nodetypes="ccccccc" />
</svg>
